<svg width="17" height="18" viewBox="0 0 17 18" fill="none" xmlns="http://www.w3.org/2000/svg">
    <path fill-rule="evenodd" clip-rule="evenodd" d="M7 1.5C5.61929 1.5 4.5 2.61929 4.5 4C4.5 5.38071 5.61929 6.5 7 6.5C8.38071 6.5 9.5 5.38071 9.5 4C9.5 2.61929 8.38071 1.5 7 1.5ZM3 4C3 1.79086 4.79086 0 7 0C9.20914 0 11 1.79086 11 4C11 6.20914 9.20914 8 7 8C4.79086 8 3 6.20914 3 4ZM0 15.625C0 12.5184 2.5184 10 5.625 10H7.75C8.16421 10 8.5 10.3358 8.5 10.75C8.5 11.1642 8.16421 11.5 7.75 11.5H5.625C3.34683 11.5 1.5 13.3468 1.5 15.625C1.5 16.1082 1.89175 16.5 2.375 16.5H5.75C6.16421 16.5 6.5 16.8358 6.5 17.25C6.5 17.6642 6.16421 18 5.75 18H2.375C1.06332 18 0 16.9367 0 15.625ZM16.765 12.2047C17.0661 12.4891 17.0797 12.9638 16.7953 13.265L12.5453 17.765C12.4014 17.9173 12.2005 18.0025 11.991 17.9999C11.7815 17.9974 11.5827 17.9074 11.4425 17.7517L9.19253 15.2517C8.91543 14.9438 8.94039 14.4696 9.24828 14.1925C9.55616 13.9154 10.0304 13.9404 10.3075 14.2483L12.0133 16.1436L15.7047 12.235C15.9892 11.9339 16.4638 11.9203 16.765 12.2047Z" fill="black"/>
</svg>
